<svg xmlns="http://www.w3.org/2000/svg" width="1600" height="1000" viewBox="0 0 1600 1000" role="img" aria-label="Dataset network illustration">
  <rect width="1600" height="1000" fill="#f6fbfb"/>
  <path d="M0 704c266-86 534-96 804-29s535 61 796-17v342H0Z" fill="#c9e2e0"/>
  <g stroke="#2f448f" stroke-width="4" opacity=".28" fill="none">
    <path d="M426 322 690 460l244-170 286 206"/>
    <path d="M690 460 795 690l425-194"/>
    <path d="M426 322 795 690"/>
  </g>
  <g fill="#fff" stroke="#c9e2e0" stroke-width="3">
    <rect x="270" y="220" width="310" height="190" rx="16"/>
    <rect x="570" y="388" width="310" height="190" rx="16"/>
    <rect x="810" y="188" width="310" height="190" rx="16"/>
    <rect x="1060" y="418" width="310" height="190" rx="16"/>
  </g>
  <g fill="#102f3f">
    <rect x="310" y="265" width="170" height="16" rx="8"/>
    <rect x="610" y="433" width="190" height="16" rx="8"/>
    <rect x="850" y="233" width="178" height="16" rx="8"/>
    <rect x="1100" y="463" width="196" height="16" rx="8"/>
  </g>
  <g fill="#3d8f8a" opacity=".8">
    <rect x="310" y="304" width="220" height="10" rx="5"/>
    <rect x="610" y="472" width="224" height="10" rx="5"/>
    <rect x="850" y="272" width="220" height="10" rx="5"/>
    <rect x="1100" y="502" width="220" height="10" rx="5"/>
  </g>
</svg>
