<svg xmlns="http://www.w3.org/2000/svg" width="1600" height="1000" viewBox="0 0 1600 1000" role="img" aria-label="Stylized agricultural field with sensor markers">
  <rect width="1600" height="1000" fill="#102f3f"/>
  <path d="M0 760c250-130 512-166 786-107 269 58 535 30 814-83v430H0Z" fill="#17646a"/>
  <path d="M0 678c270-80 522-87 755-19 303 88 565 74 845-43v120c-276 115-550 126-822 34-244-82-505-77-778 17Z" fill="#3d8f8a"/>
  <g fill="none" stroke="#94c7c3" stroke-width="3" opacity=".55">
    <path d="M110 1000c150-170 286-292 410-366"/>
    <path d="M310 1000c115-152 234-267 356-344"/>
    <path d="M510 1000c91-128 190-229 296-303"/>
    <path d="M710 1000c67-101 145-186 235-255"/>
    <path d="M910 1000c49-80 109-151 181-213"/>
    <path d="M1110 1000c35-60 78-116 130-168"/>
  </g>
  <g transform="translate(1010 245)">
    <rect width="348" height="210" rx="18" fill="#f6fbfb" opacity=".92"/>
    <circle cx="75" cy="78" r="34" fill="#94c7c3"/>
    <path d="M61 91c28-4 49-24 62-59 11 31 2 56-21 75-20 16-35 11-41-16Z" fill="#102f3f"/>
    <rect x="132" y="54" width="152" height="14" rx="7" fill="#102f3f" opacity=".9"/>
    <rect x="132" y="84" width="184" height="10" rx="5" fill="#17646a" opacity=".55"/>
    <rect x="42" y="142" width="264" height="28" rx="14" fill="#2f448f" opacity=".9"/>
  </g>
</svg>
